<svg xmlns="http://www.w3.org/2000/svg" width="1200" height="520" viewBox="0 0 1200 520" fill="none">
  <defs>
    <linearGradient id="gold" x1="0" y1="0" x2="1" y2="1">
      <stop offset="0" stop-color="#7a5518"/>
      <stop offset="0.45" stop-color="#f4d37a"/>
      <stop offset="1" stop-color="#8a611f"/>
    </linearGradient>
    <filter id="glow" x="-8%" y="-16%" width="116%" height="132%">
      <feGaussianBlur stdDeviation="5" result="b"/>
      <feMerge><feMergeNode in="b"/><feMergeNode in="SourceGraphic"/></feMerge>
    </filter>
  </defs>
  <rect x="12" y="12" width="1176" height="496" rx="14" fill="none" stroke="#2b3346" stroke-width="10" opacity=".7"/>
  <rect x="22" y="22" width="1156" height="476" rx="10" fill="none" stroke="url(#gold)" stroke-width="3" opacity=".95"/>
  <path d="M58 58h150l20-20h120M1142 58H992l-20-20H852M58 462h150l20 20h120M1142 462H992l-20 20H852" stroke="url(#gold)" stroke-width="4" stroke-linecap="round"/>
  <path d="M600 17l24 24-24 24-24-24 24-24zM600 455l24 24-24 24-24-24 24-24z" fill="#111827" stroke="url(#gold)" stroke-width="3" filter="url(#glow)"/>
  <path d="M600 30l11 11-11 11-11-11 11-11zM600 468l11 11-11 11-11-11 11-11z" fill="#f4d37a"/>
  <path d="M40 90v90M1160 90v90M40 340v90M1160 340v90" stroke="url(#gold)" stroke-width="3" stroke-linecap="round" opacity=".65"/>
</svg>
