<svg xmlns="http://www.w3.org/2000/svg" width="1600" height="900" viewBox="0 0 1600 900" fill="none">
  <defs>
    <radialGradient id="r" cx="50%" cy="50%" r="50%">
      <stop offset="0" stop-color="#f8dc83" stop-opacity=".22"/>
      <stop offset=".45" stop-color="#d09b38" stop-opacity=".08"/>
      <stop offset="1" stop-color="#000" stop-opacity="0"/>
    </radialGradient>
  </defs>
  <rect width="1600" height="900" fill="url(#r)"/>
  <path d="M80 95c155 70 270 70 425 0s280-70 450 0 285 70 565 0" stroke="#d8b45b" stroke-opacity=".12" stroke-width="18" stroke-linecap="round"/>
  <path d="M120 770c210-105 380-110 580-30s380 80 780-40" stroke="#d8b45b" stroke-opacity=".1" stroke-width="22" stroke-linecap="round"/>
  <path d="M210 235c80 30 150 30 230 0M1160 235c80 30 150 30 230 0M650 165c95 35 205 35 300 0" stroke="#d8b45b" stroke-opacity=".16" stroke-width="5" stroke-linecap="round"/>
  <circle cx="800" cy="450" r="240" stroke="#d8b45b" stroke-opacity=".07" stroke-width="5" stroke-dasharray="22 24"/>
  <circle cx="800" cy="450" r="330" stroke="#d8b45b" stroke-opacity=".04" stroke-width="5"/>
</svg>
