<svg xmlns="http://www.w3.org/2000/svg" width="1200" height="800" viewBox="0 0 1200 800" fill="none">
  <defs>
    <linearGradient id="g" x1="0" y1="0" x2="1" y2="1">
      <stop offset="0" stop-color="#ffffff" stop-opacity="0.18"/>
      <stop offset="0.45" stop-color="#d7b56d" stop-opacity="0.55"/>
      <stop offset="1" stop-color="#6f4f17" stop-opacity="0.9"/>
    </linearGradient>
    <filter id="glow" x="-20%" y="-20%" width="140%" height="140%">
      <feGaussianBlur stdDeviation="6" result="b"/>
      <feMerge>
        <feMergeNode in="b"/>
        <feMergeNode in="SourceGraphic"/>
      </feMerge>
    </filter>
  </defs>
  <rect width="1200" height="800" rx="36" fill="#12151f"/>
  <path d="M80 130h160v22H80zM80 170h200v10H80zM80 190h140v10H80zM80 210h210v10H80z" fill="url(#g)" opacity=".8"/>
  <path d="M1120 670h-160v-22h160zM1120 630h-210v-10h210zM1120 610h-150v-10h150zM1120 590h-220v-10h220z" fill="url(#g)" opacity=".8"/>
  <path d="M280 110C420 40 780 40 920 110" stroke="url(#g)" stroke-width="6" stroke-linecap="round" filter="url(#glow)"/>
  <path d="M200 700C360 760 840 760 1000 700" stroke="url(#g)" stroke-width="6" stroke-linecap="round" filter="url(#glow)"/>
  <path d="M600 106l28 54 60 9-44 43 10 60-54-28-54 28 10-60-44-43 60-9z" fill="url(#g)" filter="url(#glow)"/>
  <path d="M600 704l18 34 38 6-28 28 7 38-35-18-35 18 7-38-28-28 38-6z" fill="url(#g)" opacity=".7" filter="url(#glow)"/>
</svg>
