<svg xmlns="http://www.w3.org/2000/svg" width="64" height="64" viewBox="0 0 64 64" role="img" aria-label="西瓜怀旧">
  <defs>
    <radialGradient id="bg" cx="50%" cy="28%" r="74%">
      <stop offset="0" stop-color="#4b170d"/>
      <stop offset="0.48" stop-color="#101525"/>
      <stop offset="1" stop-color="#03060d"/>
    </radialGradient>
    <linearGradient id="gold" x1="12" y1="6" x2="52" y2="58">
      <stop offset="0" stop-color="#fff0a8"/>
      <stop offset="0.35" stop-color="#e1b54e"/>
      <stop offset="0.68" stop-color="#8e5e1f"/>
      <stop offset="1" stop-color="#f6d978"/>
    </linearGradient>
    <linearGradient id="red" x1="12" y1="12" x2="52" y2="52">
      <stop offset="0" stop-color="#ec5a32"/>
      <stop offset="1" stop-color="#7b1515"/>
    </linearGradient>
    <filter id="shadow" x="-30%" y="-30%" width="160%" height="160%">
      <feDropShadow dx="0" dy="2" stdDeviation="2" flood-color="#000" flood-opacity="0.65"/>
      <feDropShadow dx="0" dy="0" stdDeviation="1.5" flood-color="#f0c96a" flood-opacity="0.35"/>
    </filter>
  </defs>
  <rect x="4" y="4" width="56" height="56" rx="10" fill="url(#bg)"/>
  <path d="M12 8h40l4 4v40l-4 4H12l-4-4V12z" fill="none" stroke="url(#gold)" stroke-width="2.5"/>
  <path d="M16 15h32M16 49h32" stroke="#7e1d16" stroke-width="3" stroke-linecap="round" opacity="0.8"/>
  <path d="M21 18h7v9h9v-9h7v28h-7V34h-9v12h-7z" fill="url(#gold)" filter="url(#shadow)"/>
  <path d="M18 17l5-5h18l5 5M18 47l5 5h18l5-5" fill="none" stroke="url(#red)" stroke-width="2" stroke-linecap="round"/>
</svg>
